General                          : ChattChitto RG - Movies [R2L]
==========

Complete name                    : Unthinkable 2010 BRRip.MP4
Format                           : MPEG-4
Format profile                   : Base Media
Codec ID                         : isom
File size                        : 1.80 GiB
Duration                         : 1h 37mn
Overall bit rate                 : 2 657 Kbps
Encoded date                     : UTC 2011-01-07 09:52:08

Video
==========
ID                               : 1
Format                           : AVC
Format/Info                      : Advanced Video Codec
Format profile                   : High@L4.0
Format settings, CABAC           : Yes
Format settings, ReFrames        : 4 frames
Codec ID                         : avc1
Codec ID/Info                    : Advanced Video Coding
Duration                         : 1h 37mn
Bit rate mode                    : Variable
Bit rate                         : 2 300 Kbps
Maximum bit rate                 : 25.1 Mbps
Width                            : 1 280 pixels
Height                           : 688 pixels
Display aspect ratio             : 1.860
Frame rate mode                  : Constant
Frame rate                       : 23.976 fps
Resolution                       : 24 bits
Colorimetry                      : 4:2:0
Scan type                        : Progressive
Bits/(Pixel*Frame)               : 0.109
Stream size                      : 1.56 GiB (87%)
Writing library                  : x264 core 84 r1400M 20fa784
Encoded date                     : UTC 2011-01-07 09:25:48

Audio
==========
ID                               : 2
Format                           : AAC
Format/Info                      : Advanced Audio Codec
Format version                   : Version 4
Format profile                   : LC
Format settings, SBR             : No
Codec ID                         : 40
Duration                         : 1h 37mn
Bit rate mode                    : Variable
Bit rate                         : 352.8 Kbps
Maximum bit rate                 : 475 Kbps
Channel(s)                       : 6 channels
Channel positions                : Front: L C R, Rear: L R, LFE
Sampling rate                    : 48.0 KHz
Resolution                       : 16 bits
Stream size                      : 246 MiB (13%)
Encoded date                     : UTC 2011-01-07 09:53:06

Subtitles                        : English | Portuguese | Spanish


----------------------------------------------------
IMDB Link: http://www.imdb.com/title/tt0914863/
----------------------------------------------------



Screen Shots:
==============    
http://bayimg.com/naCMNaAdp 
http://bayimg.com/OAcMaAAdP 
http://bayimg.com/OACMBAADP 
http://bayimg.com/OAcMCAADp 
http://bayimg.com/OACMDaADP



Plot:
======
When a nuclear expert-turned-extremist plants devices in three separate cities, the country's counter-terrorism force springs into action and captures him. But the location of his bombs remains a mystery. With time running out, FBI agent Helen Brody agrees to work alongside a mysterious interrogator known only as "H", whose ruthless methods get results. But a power struggle develops between Brody, "H' and the terrorist.



Release Info:
==============
original name .... : Unthinkable 2010 BRRip
ripper.............: CHD
encoder............: Recalled2Life (R2L)
video codec........: H264/.MP4                   
video bitrate......: 2300 Kbps
audio codec........: AAC-LC
aspect ratio.......: 1.860
resolution.........: 1280 x 688
genre..............: Drama | Thriller         
runtime............: 1h 37mn
language...........: English
rating.............: R                         
subtitles..........: English | Portuguese | Spanish
sample.............: Yes [27.7 MB]
2ch Audio..........: 2ch Audio for XBox Viewers  
Compatibility .....: XBox 360 | PS3 | WD Live 



Source:
========
Unthinkable.2010.BluRay.1080p.DTS.x264-CHD THANKS!


Notes:
=======
ChattChitto RG Encourages Burning this Film with ConvertXtoDVD.
XBox 360 | PS3 | WD Live - Compatible
Enhanced and Filtered for your viewing pleasure ;)